<svg width="218" height="62" viewBox="0 0 218 62" fill="none" xmlns="http://www.w3.org/2000/svg">
<path d="M26.4819 51.242C24.5752 53.5135 21.3727 56.274 18.4644 54.3557C18.2342 52.1468 21.4767 51.4004 22.2847 49.9526C20.5048 49.4102 18.8299 49.2622 17.0553 48.9385C17.0181 48.3389 17.1038 47.7987 17.3292 47.1322C17.8542 45.5762 16.9966 43.5572 15.1541 43.24C10.9699 42.5192 7.57217 39.9012 6.21967 35.6211C4.48443 36.7037 2.47104 36.4779 1.15466 35.1042C-0.158494 33.7343 -0.380586 31.6282 0.637699 30.0227C1.68563 28.371 3.69525 27.7486 5.69786 28.4449C6.91452 21.8401 12.1434 17.0774 18.6763 16.4082C23.6475 15.899 28.3406 17.6285 31.7776 21.2656C32.5662 22.1001 33.7139 22.6241 34.7866 22.7394C35.8939 22.858 36.5806 22.2236 36.8087 21.2395C37.1213 19.8891 37.724 18.7243 38.4679 17.5295C32.1452 15.1281 26.7401 13.2445 23.1839 7.15816C22.7279 6.37798 22.2988 5.65983 22.2341 4.71643C26.1946 4.29207 31.6003 7.26806 34.4621 9.64287C36.6874 11.4899 38.4221 13.6357 40.2236 15.8794C40.4047 16.1052 41.1449 15.7314 41.2602 15.4496C40.1789 13.6656 38.6668 12.1123 37.2954 10.5449C32.4072 4.95691 29.0478 7.62823 29.3513 0C30.962 0.0805205 32.0881 0.742638 33.2681 1.53315C38.1574 4.80892 40.7309 9.48781 42.7243 15.097C48.1769 14.5475 53.1567 18.2656 54.8321 23.4423C55.2127 24.618 54.9238 25.8487 54.1917 26.7839C52.3503 29.1386 48.9612 29.3095 46.1215 29.8258C45.7511 31.4688 45.4385 32.9867 44.8142 34.5215C43.2467 38.3751 40.1109 41.1726 36.1246 42.3108C34.7376 42.7069 33.6056 43.3793 32.6288 44.4315L30.0774 47.1796L26.0377 45.592C29.4715 40.3565 30.2019 33.756 26.4441 28.5102C22.8454 23.487 15.5363 21.7824 10.7483 25.9129C16.8521 22.6964 23.9618 25.5973 26.1417 32.1407C27.7681 37.0226 26.435 42.1971 23.0017 46.1769C27.2738 47.488 34.7861 50.2143 36.0464 54.8986C29.9362 55.4307 31.942 53.2844 26.4803 51.2415L26.4819 51.242Z" fill="black"/>
<path d="M64.4551 7.84708H84.6338C94.1541 7.84708 99.9022 12.2165 99.9022 20.2971C99.9022 25.9834 96.5491 29.575 91.2202 30.7719V30.8914C101.938 32.747 98.046 49.3273 100.501 50.0452V50.6437H89.3042C87.2088 48.8479 91.1006 35.7391 81.9397 35.7391H75.2336V50.6437H64.4556V7.84708H64.4551ZM75.233 26.9411H82.5378C86.8488 26.9411 89.1242 25.385 89.1242 21.7934C89.1242 18.2018 86.8488 16.6457 82.5378 16.6457H75.233V26.9411Z" fill="black"/>
<path d="M123.972 41.3663H133.492C131.816 47.5315 127.026 51.6019 118.703 51.6019C108.524 51.6019 102.357 44.8981 102.357 35.3212C102.357 25.7443 108.405 19.0405 118.164 19.0405C128.643 19.0405 133.971 26.702 133.971 37.8355H111.937C111.937 42.1452 115.111 44.4198 118.524 44.4198C121.936 44.4198 123.373 42.8637 123.972 41.3668V41.3663ZM111.937 32.0291H124.391C124.391 27.7793 121.816 25.6247 118.164 25.6247C114.511 25.6247 111.937 27.7793 111.937 32.0291Z" fill="black"/>
<path d="M164.268 41.606C164.268 48.0707 159.358 51.602 150.856 51.602C139.898 51.602 135.707 46.694 135.407 40.4684H144.389C144.688 43.5214 146.724 45.0172 150.496 45.0172C153.191 45.0172 154.688 44.1193 154.688 42.3838C154.688 39.7504 151.814 39.3912 146.964 38.3134C141.754 37.1763 136.006 35.2609 136.006 28.856C136.006 23.2892 140.796 19.0394 149.419 19.0394C159.239 19.0394 163.071 24.0078 163.37 29.3947H154.388C154.089 26.9406 152.772 25.6237 149.658 25.6237C146.963 25.6237 145.587 26.5814 145.587 28.0777C145.587 30.2328 147.503 30.2926 152.233 31.31C158.281 32.627 164.268 34.662 164.268 41.6055V41.606Z" fill="black"/>
<path d="M178.698 27.1802V39.8694C178.698 43.3409 179.955 43.3409 184.027 43.3409V50.5235C182.29 50.8828 180.793 51.1817 178.099 51.1817C171.093 51.1817 169.117 47.4706 169.117 40.5874V27.1797H164.866V19.997H169.117V11.4376H178.698V19.997H184.027V27.1797H178.698V27.1802Z" fill="black"/>
<path d="M207.558 51.2427C204.923 59.0836 202.049 61.2387 195.582 61.2387C193.966 61.2387 192.229 61.0593 190.253 60.6403V53.4576H190.373C193.007 54.056 195.163 53.757 196.181 52.2004C197.079 50.8237 196.9 48.9083 195.942 46.2146L185.942 19.9977H195.523L202.468 40.1092H202.588L208.396 19.9977H217.976L207.558 51.2427Z" fill="black"/>
</svg>
